<?xml version="1.0" encoding="utf-8"?>
<!-- Generator: Adobe Illustrator 21.1.0, SVG Export Plug-In . SVG Version: 6.00 Build 0)  -->
<svg version="1.1" id="Calque_1" xmlns="http://www.w3.org/2000/svg" xmlns:xlink="http://www.w3.org/1999/xlink" x="0px" y="0px"
	 viewBox="0 0 25 25" style="enable-background:new 0 0 25 25;" xml:space="preserve">
<style type="text/css">
	.st0{fill:#B0B4B6;}
</style>
<path class="st0" d="M13.9,12.5L24.7,1.7c0.4-0.4,0.4-1,0-1.4s-1-0.4-1.4,0L12.5,11.1L1.7,0.3c-0.4-0.4-1-0.4-1.4,0s-0.4,1,0,1.4
	l10.8,10.8L0.3,23.3c-0.4,0.4-0.4,1,0,1.4C0.5,24.9,0.8,25,1,25c0.3,0,0.5-0.1,0.7-0.3l10.8-10.8l10.8,10.8c0.2,0.2,0.5,0.3,0.7,0.3
	c0.3,0,0.5-0.1,0.7-0.3c0.4-0.4,0.4-1,0-1.4L13.9,12.5z"/>
</svg>
